<svg width="32" height="32" viewBox="0 0 32 32" fill="none" xmlns="http://www.w3.org/2000/svg">
<g clip-path="url(#clip0)">
<path d="M31.937 6.093C30.7393 6.6195 29.4708 6.96722 28.172 7.125C29.541 6.30329 30.566 5.01334 31.057 3.494C29.7621 4.245 28.3527 4.77842 26.885 5.073C25.898 4.01846 24.5906 3.31912 23.1656 3.08349C21.7406 2.84787 20.2777 3.08912 19.0038 3.76983C17.7299 4.45054 16.7163 5.53264 16.1202 6.84825C15.5241 8.16385 15.3788 9.63941 15.707 11.046C10.254 10.791 5.41999 8.171 2.18699 4.213C1.59846 5.21388 1.29066 6.35492 1.29599 7.516C1.29518 8.59536 1.56093 9.65822 2.06963 10.6102C2.57832 11.5622 3.31422 12.3738 4.21199 12.973C3.17161 12.9415 2.1539 12.6614 1.24399 12.156V12.235C1.24367 13.75 1.7672 15.2186 2.72584 16.3917C3.68448 17.5649 5.01927 18.3705 6.50399 18.672C5.94158 18.8223 5.36212 18.8992 4.77999 18.901C4.35899 18.901 3.95699 18.86 3.55599 18.786C3.97851 20.0897 4.79699 21.2293 5.89749 22.046C6.998 22.8628 8.32577 23.3162 9.69599 23.343C7.3744 25.1611 4.50977 26.1475 1.56099 26.144C1.03869 26.1461 0.516747 26.1167 -0.00201416 26.056C3.00608 27.9835 6.50435 29.0067 10.077 29.004C22.144 29.004 28.738 19.009 28.738 10.353C28.738 10.077 28.738 9.796 28.717 9.514C30.0069 8.58954 31.1185 7.43895 31.998 6.118L31.937 6.093Z" fill="black"/>
</g>
<defs>
<clipPath id="clip0">
<rect width="32" height="32" fill="white"/>
</clipPath>
</defs>
</svg>
