<svg width="32" height="32" viewBox="0 0 32 32" fill="none" xmlns="http://www.w3.org/2000/svg">
<path d="M0 4C0 1.79086 1.79086 0 4 0H28C30.2091 0 32 1.79086 32 4V28C32 30.2091 30.2091 32 28 32H4C1.79086 32 0 30.2091 0 28V4Z" fill="black"/>
<path d="M24.6603 21C25.536 19.4832 26 17.7591 26 16H21C21 18.7614 18.7614 21 16 21C13.2386 21 11 18.7614 11 16C11 13.2386 13.2386 11 16 11L16 6C14.0222 6 12.0888 6.58649 10.4443 7.6853C8.79981 8.78412 7.51809 10.3459 6.76121 12.1732C6.00433 14.0004 5.8063 16.0111 6.19215 17.9509C6.578 19.8907 7.53041 21.6725 8.92894 23.0711C10.3275 24.4696 12.1093 25.422 14.0491 25.8078C14.6978 25.9369 15.3545 26.0006 16.0095 26H26V21H24.6603Z" fill="white"/>
<path d="M26 8.5C26 9.88071 24.8807 11 23.5 11C22.1193 11 21 9.88071 21 8.5C21 7.11929 22.1193 6 23.5 6C24.8807 6 26 7.11929 26 8.5Z" fill="white"/>
</svg>
