<svg width="32" height="32" viewBox="0 0 32 32" fill="none" xmlns="http://www.w3.org/2000/svg">
<path fill-rule="evenodd" clip-rule="evenodd" d="M0 16C0 7.16344 7.16344 0 16 0C24.8366 0 32 7.16344 32 16V28C32 30.2091 30.2091 32 28 32H16C7.16344 32 0 24.8366 0 16ZM24 16C24 20.4183 20.4183 24 16 24C11.5817 24 8 20.4183 8 16C8 11.5817 11.5817 8 16 8C20.4183 8 24 11.5817 24 16ZM26 28C27.1046 28 28 27.1046 28 26C28 24.8954 27.1046 24 26 24C24.8954 24 24 24.8954 24 26C24 27.1046 24.8954 28 26 28Z" fill="white"/>
</svg>
