<svg width="32" height="32" viewBox="0 0 32 32" fill="none" xmlns="http://www.w3.org/2000/svg">
<g clip-path="url(#clip0)">
<path d="M0.5 16C0.499999 7.43959 7.43959 0.500001 16 0.5C24.5604 0.499999 31.5 7.43959 31.5 16C31.5 24.5604 24.5604 31.5 16 31.5C7.43959 31.5 0.500001 24.5604 0.5 16ZM16 24.5C20.6944 24.5 24.5 20.6944 24.5 16C24.5 11.3056 20.6944 7.5 16 7.5C11.3056 7.5 7.5 11.3056 7.5 16C7.5 20.6944 11.3056 24.5 16 24.5Z" fill="white" stroke="#3B82F6"/>
<path d="M20.0059 24.9557L20.0055 24.9553L20.0036 24.9534L16.7955 21.7453C15.4286 20.3784 15.4286 18.1623 16.7954 16.7955C18.1623 15.4287 20.3784 15.4287 21.7452 16.7955L29.1535 24.2038C27.902 26.206 26.2059 27.902 24.2037 29.1535L20.0059 24.9557Z" fill="#3B82F6" stroke="white"/>
</g>
<defs>
<clipPath id="clip0">
<rect width="32" height="32" fill="white"/>
</clipPath>
</defs>
</svg>
